<mxfile host="app.diagrams.net" modified="2024-04-26T07:19:44.519Z" agent="Mozilla/5.0 (Windows NT 10.0; Win64; x64) AppleWebKit/537.36 (KHTML, like Gecko) Chrome/124.0.0.0 Safari/537.36" etag="ltLZgOsMAL7fdybLtdHJ" version="24.3.0" type="device">
  <diagram name="PÃ¡gina-1" id="VRjrQ0HQA475oPkjXXXU">
    <mxGraphModel dx="2827" dy="1183" grid="1" gridSize="10" guides="1" tooltips="1" connect="1" arrows="1" fold="1" page="1" pageScale="1" pageWidth="827" pageHeight="1169" math="0" shadow="0">
      <root>
        <mxCell id="0" />
        <mxCell id="1" parent="0" />
        <mxCell id="gq0IGf57Xp_oyUZvGR3P-10" value="&lt;p style=&quot;margin:0px;margin-top:4px;text-align:center;&quot;&gt;&lt;b&gt;camion&lt;/b&gt;&lt;/p&gt;&lt;hr size=&quot;1&quot; style=&quot;border-style:solid;&quot;&gt;&lt;p style=&quot;margin:0px;margin-left:4px;&quot;&gt;- capacidadCamion: int&lt;br&gt;- capacidad : int&lt;/p&gt;&lt;div&gt;&amp;nbsp;- caja : int&lt;br&gt;&amp;nbsp;- cantidadDeCajas: int&lt;/div&gt;&lt;div&gt;&amp;nbsp;- velocidadPunta: int&lt;/div&gt;&lt;hr size=&quot;1&quot; style=&quot;border-style:solid;&quot;&gt;&lt;p style=&quot;margin:0px;margin-left:4px;&quot;&gt;+ cargar()&lt;br&gt;+ velocidad()&lt;/p&gt;" style="verticalAlign=top;align=left;overflow=fill;html=1;whiteSpace=wrap;" parent="1" vertex="1">
          <mxGeometry x="-240" y="40" width="170" height="210" as="geometry" />
        </mxCell>
        <mxCell id="gq0IGf57Xp_oyUZvGR3P-26" style="edgeStyle=orthogonalEdgeStyle;rounded=0;orthogonalLoop=1;jettySize=auto;html=1;exitX=0.5;exitY=1;exitDx=0;exitDy=0;" parent="1" source="gq0IGf57Xp_oyUZvGR3P-24" target="gq0IGf57Xp_oyUZvGR3P-27" edge="1">
          <mxGeometry relative="1" as="geometry">
            <mxPoint x="-576.7894736842104" y="370" as="targetPoint" />
          </mxGeometry>
        </mxCell>
        <mxCell id="gq0IGf57Xp_oyUZvGR3P-24" value="Cargar()" style="ellipse;whiteSpace=wrap;html=1;" parent="1" vertex="1">
          <mxGeometry x="-637" y="250" width="120" height="80" as="geometry" />
        </mxCell>
        <mxCell id="gq0IGf57Xp_oyUZvGR3P-28" style="edgeStyle=orthogonalEdgeStyle;rounded=0;orthogonalLoop=1;jettySize=auto;html=1;" parent="1" source="gq0IGf57Xp_oyUZvGR3P-27" target="gq0IGf57Xp_oyUZvGR3P-29" edge="1">
          <mxGeometry relative="1" as="geometry">
            <mxPoint x="-499.99947368421044" y="440" as="targetPoint" />
          </mxGeometry>
        </mxCell>
        <mxCell id="gq0IGf57Xp_oyUZvGR3P-27" value="capacidadCamion=100&lt;div&gt;caja=5&lt;/div&gt;&lt;div&gt;capacidad=capacidadCamion&lt;/div&gt;" style="rounded=0;whiteSpace=wrap;html=1;" parent="1" vertex="1">
          <mxGeometry x="-663" y="360" width="172" height="60" as="geometry" />
        </mxCell>
        <mxCell id="gq0IGf57Xp_oyUZvGR3P-33" value="" style="edgeStyle=orthogonalEdgeStyle;rounded=0;orthogonalLoop=1;jettySize=auto;html=1;" parent="1" source="gq0IGf57Xp_oyUZvGR3P-29" target="gq0IGf57Xp_oyUZvGR3P-32" edge="1">
          <mxGeometry relative="1" as="geometry" />
        </mxCell>
        <mxCell id="gq0IGf57Xp_oyUZvGR3P-29" value="getCantidadDeCajas" style="shape=parallelogram;perimeter=parallelogramPerimeter;whiteSpace=wrap;html=1;fixedSize=1;" parent="1" vertex="1">
          <mxGeometry x="-647" y="460" width="140" height="60" as="geometry" />
        </mxCell>
        <mxCell id="gq0IGf57Xp_oyUZvGR3P-34" style="edgeStyle=orthogonalEdgeStyle;rounded=0;orthogonalLoop=1;jettySize=auto;html=1;" parent="1" source="gq0IGf57Xp_oyUZvGR3P-32" edge="1">
          <mxGeometry relative="1" as="geometry">
            <mxPoint x="-767" y="781.9493343955592" as="targetPoint" />
          </mxGeometry>
        </mxCell>
        <mxCell id="gq0IGf57Xp_oyUZvGR3P-36" value="false" style="edgeLabel;html=1;align=center;verticalAlign=middle;resizable=0;points=[];" parent="gq0IGf57Xp_oyUZvGR3P-34" vertex="1" connectable="0">
          <mxGeometry x="0.2844" y="1" relative="1" as="geometry">
            <mxPoint as="offset" />
          </mxGeometry>
        </mxCell>
        <mxCell id="gq0IGf57Xp_oyUZvGR3P-35" style="edgeStyle=orthogonalEdgeStyle;rounded=0;orthogonalLoop=1;jettySize=auto;html=1;exitX=1;exitY=0.5;exitDx=0;exitDy=0;" parent="1" source="gq0IGf57Xp_oyUZvGR3P-32" target="gq0IGf57Xp_oyUZvGR3P-39" edge="1">
          <mxGeometry relative="1" as="geometry">
            <mxPoint x="-387" y="750" as="targetPoint" />
            <Array as="points">
              <mxPoint x="-402" y="620" />
            </Array>
          </mxGeometry>
        </mxCell>
        <mxCell id="gq0IGf57Xp_oyUZvGR3P-37" value="true" style="edgeLabel;html=1;align=center;verticalAlign=middle;resizable=0;points=[];" parent="gq0IGf57Xp_oyUZvGR3P-35" vertex="1" connectable="0">
          <mxGeometry x="0.3089" y="-1" relative="1" as="geometry">
            <mxPoint as="offset" />
          </mxGeometry>
        </mxCell>
        <mxCell id="gq0IGf57Xp_oyUZvGR3P-32" value="&amp;nbsp;while&lt;br&gt;capacidad&amp;gt;0 &amp;amp;&amp;amp; cantidadDeCajas &amp;gt;0" style="rhombus;whiteSpace=wrap;html=1;" parent="1" vertex="1">
          <mxGeometry x="-712" y="570" width="270" height="100" as="geometry" />
        </mxCell>
        <mxCell id="gq0IGf57Xp_oyUZvGR3P-41" value="" style="edgeStyle=orthogonalEdgeStyle;rounded=0;orthogonalLoop=1;jettySize=auto;html=1;" parent="1" source="gq0IGf57Xp_oyUZvGR3P-39" target="gq0IGf57Xp_oyUZvGR3P-47" edge="1">
          <mxGeometry relative="1" as="geometry">
            <mxPoint x="-397" y="880" as="targetPoint" />
          </mxGeometry>
        </mxCell>
        <mxCell id="gq0IGf57Xp_oyUZvGR3P-39" value="capacidad=capacidad - caja&lt;br&gt;cantidadDeCajas=cantidadDeCajas - caja" style="rounded=0;whiteSpace=wrap;html=1;" parent="1" vertex="1">
          <mxGeometry x="-557" y="760" width="315" height="60" as="geometry" />
        </mxCell>
        <mxCell id="gq0IGf57Xp_oyUZvGR3P-47" value="cantidadDeCajas&lt;div&gt;capacidad&lt;/div&gt;" style="shape=document;whiteSpace=wrap;html=1;boundedLbl=1;" parent="1" vertex="1">
          <mxGeometry x="-459.5" y="850" width="120" height="70" as="geometry" />
        </mxCell>
        <mxCell id="gq0IGf57Xp_oyUZvGR3P-48" value="" style="endArrow=classic;html=1;rounded=0;entryX=0.5;entryY=1;entryDx=0;entryDy=0;" parent="1" target="gq0IGf57Xp_oyUZvGR3P-32" edge="1">
          <mxGeometry width="50" height="50" relative="1" as="geometry">
            <mxPoint x="-397" y="910" as="sourcePoint" />
            <mxPoint x="-687" y="950" as="targetPoint" />
            <Array as="points">
              <mxPoint x="-397" y="950" />
              <mxPoint x="-577" y="950" />
            </Array>
          </mxGeometry>
        </mxCell>
        <mxCell id="gq0IGf57Xp_oyUZvGR3P-49" value="FIN" style="ellipse;whiteSpace=wrap;html=1;" parent="1" vertex="1">
          <mxGeometry x="-827" y="780" width="120" height="80" as="geometry" />
        </mxCell>
        <mxCell id="mdMxyu3jx2R_SwpYTg0W-3" style="edgeStyle=orthogonalEdgeStyle;rounded=0;orthogonalLoop=1;jettySize=auto;html=1;" edge="1" parent="1" source="mdMxyu3jx2R_SwpYTg0W-1" target="mdMxyu3jx2R_SwpYTg0W-6">
          <mxGeometry relative="1" as="geometry">
            <mxPoint x="220" y="365" as="targetPoint" />
          </mxGeometry>
        </mxCell>
        <mxCell id="mdMxyu3jx2R_SwpYTg0W-1" value="velocidad()" style="ellipse;whiteSpace=wrap;html=1;" vertex="1" parent="1">
          <mxGeometry x="160" y="255" width="120" height="80" as="geometry" />
        </mxCell>
        <mxCell id="mdMxyu3jx2R_SwpYTg0W-8" value="" style="edgeStyle=orthogonalEdgeStyle;rounded=0;orthogonalLoop=1;jettySize=auto;html=1;" edge="1" parent="1" source="mdMxyu3jx2R_SwpYTg0W-6" target="mdMxyu3jx2R_SwpYTg0W-7">
          <mxGeometry relative="1" as="geometry" />
        </mxCell>
        <mxCell id="mdMxyu3jx2R_SwpYTg0W-6" value="get capacidad" style="shape=parallelogram;perimeter=parallelogramPerimeter;whiteSpace=wrap;html=1;fixedSize=1;" vertex="1" parent="1">
          <mxGeometry x="160" y="365" width="120" height="60" as="geometry" />
        </mxCell>
        <mxCell id="mdMxyu3jx2R_SwpYTg0W-9" style="edgeStyle=orthogonalEdgeStyle;rounded=0;orthogonalLoop=1;jettySize=auto;html=1;" edge="1" parent="1" source="mdMxyu3jx2R_SwpYTg0W-7">
          <mxGeometry relative="1" as="geometry">
            <mxPoint x="80" y="665" as="targetPoint" />
          </mxGeometry>
        </mxCell>
        <mxCell id="mdMxyu3jx2R_SwpYTg0W-31" value="true" style="edgeLabel;html=1;align=center;verticalAlign=middle;resizable=0;points=[];" vertex="1" connectable="0" parent="mdMxyu3jx2R_SwpYTg0W-9">
          <mxGeometry x="0.2049" y="-2" relative="1" as="geometry">
            <mxPoint as="offset" />
          </mxGeometry>
        </mxCell>
        <mxCell id="mdMxyu3jx2R_SwpYTg0W-13" style="edgeStyle=orthogonalEdgeStyle;rounded=0;orthogonalLoop=1;jettySize=auto;html=1;exitX=1;exitY=0.5;exitDx=0;exitDy=0;" edge="1" parent="1" source="mdMxyu3jx2R_SwpYTg0W-7" target="mdMxyu3jx2R_SwpYTg0W-15">
          <mxGeometry relative="1" as="geometry">
            <mxPoint x="350" y="685" as="targetPoint" />
          </mxGeometry>
        </mxCell>
        <mxCell id="mdMxyu3jx2R_SwpYTg0W-30" value="false" style="edgeLabel;html=1;align=center;verticalAlign=middle;resizable=0;points=[];" vertex="1" connectable="0" parent="mdMxyu3jx2R_SwpYTg0W-13">
          <mxGeometry x="0.0118" y="-1" relative="1" as="geometry">
            <mxPoint as="offset" />
          </mxGeometry>
        </mxCell>
        <mxCell id="mdMxyu3jx2R_SwpYTg0W-7" value="capacidad&amp;gt;=90" style="rhombus;whiteSpace=wrap;html=1;" vertex="1" parent="1">
          <mxGeometry x="120" y="495" width="200" height="80" as="geometry" />
        </mxCell>
        <mxCell id="mdMxyu3jx2R_SwpYTg0W-18" style="edgeStyle=orthogonalEdgeStyle;rounded=0;orthogonalLoop=1;jettySize=auto;html=1;" edge="1" parent="1" source="mdMxyu3jx2R_SwpYTg0W-15">
          <mxGeometry relative="1" as="geometry">
            <mxPoint x="210" y="820" as="targetPoint" />
          </mxGeometry>
        </mxCell>
        <mxCell id="mdMxyu3jx2R_SwpYTg0W-32" value="true" style="edgeLabel;html=1;align=center;verticalAlign=middle;resizable=0;points=[];" vertex="1" connectable="0" parent="mdMxyu3jx2R_SwpYTg0W-18">
          <mxGeometry x="0.2416" relative="1" as="geometry">
            <mxPoint as="offset" />
          </mxGeometry>
        </mxCell>
        <mxCell id="mdMxyu3jx2R_SwpYTg0W-19" style="edgeStyle=orthogonalEdgeStyle;rounded=0;orthogonalLoop=1;jettySize=auto;html=1;" edge="1" parent="1" source="mdMxyu3jx2R_SwpYTg0W-15">
          <mxGeometry relative="1" as="geometry">
            <mxPoint x="450" y="820" as="targetPoint" />
          </mxGeometry>
        </mxCell>
        <mxCell id="mdMxyu3jx2R_SwpYTg0W-33" value="false" style="edgeLabel;html=1;align=center;verticalAlign=middle;resizable=0;points=[];" vertex="1" connectable="0" parent="mdMxyu3jx2R_SwpYTg0W-19">
          <mxGeometry x="0.0245" relative="1" as="geometry">
            <mxPoint as="offset" />
          </mxGeometry>
        </mxCell>
        <mxCell id="mdMxyu3jx2R_SwpYTg0W-15" value="capacidad&amp;gt;=50" style="rhombus;whiteSpace=wrap;html=1;" vertex="1" parent="1">
          <mxGeometry x="250" y="665" width="180" height="60" as="geometry" />
        </mxCell>
        <mxCell id="mdMxyu3jx2R_SwpYTg0W-24" style="edgeStyle=orthogonalEdgeStyle;rounded=0;orthogonalLoop=1;jettySize=auto;html=1;entryX=0;entryY=0.5;entryDx=0;entryDy=0;exitX=0.417;exitY=1.006;exitDx=0;exitDy=0;exitPerimeter=0;" edge="1" parent="1" source="mdMxyu3jx2R_SwpYTg0W-16" target="mdMxyu3jx2R_SwpYTg0W-25">
          <mxGeometry relative="1" as="geometry">
            <mxPoint x="90" y="1045.5555419921875" as="targetPoint" />
          </mxGeometry>
        </mxCell>
        <mxCell id="mdMxyu3jx2R_SwpYTg0W-16" value="velocidadPunta=110" style="shape=parallelogram;perimeter=parallelogramPerimeter;whiteSpace=wrap;html=1;fixedSize=1;" vertex="1" parent="1">
          <mxGeometry x="10" y="665" width="160" height="60" as="geometry" />
        </mxCell>
        <mxCell id="mdMxyu3jx2R_SwpYTg0W-27" style="edgeStyle=orthogonalEdgeStyle;rounded=0;orthogonalLoop=1;jettySize=auto;html=1;entryX=0;entryY=0;entryDx=0;entryDy=0;" edge="1" parent="1" source="mdMxyu3jx2R_SwpYTg0W-21" target="mdMxyu3jx2R_SwpYTg0W-25">
          <mxGeometry relative="1" as="geometry" />
        </mxCell>
        <mxCell id="mdMxyu3jx2R_SwpYTg0W-21" value="velocidadPunta=80" style="shape=parallelogram;perimeter=parallelogramPerimeter;whiteSpace=wrap;html=1;fixedSize=1;" vertex="1" parent="1">
          <mxGeometry x="120" y="820" width="160" height="60" as="geometry" />
        </mxCell>
        <mxCell id="mdMxyu3jx2R_SwpYTg0W-28" style="edgeStyle=orthogonalEdgeStyle;rounded=0;orthogonalLoop=1;jettySize=auto;html=1;entryX=1;entryY=0;entryDx=0;entryDy=0;" edge="1" parent="1" source="mdMxyu3jx2R_SwpYTg0W-23" target="mdMxyu3jx2R_SwpYTg0W-25">
          <mxGeometry relative="1" as="geometry" />
        </mxCell>
        <mxCell id="mdMxyu3jx2R_SwpYTg0W-23" value="velocidadPunta=60" style="shape=parallelogram;perimeter=parallelogramPerimeter;whiteSpace=wrap;html=1;fixedSize=1;" vertex="1" parent="1">
          <mxGeometry x="360" y="820" width="160" height="60" as="geometry" />
        </mxCell>
        <mxCell id="mdMxyu3jx2R_SwpYTg0W-25" value="fin" style="ellipse;whiteSpace=wrap;html=1;" vertex="1" parent="1">
          <mxGeometry x="240" y="990" width="120" height="80" as="geometry" />
        </mxCell>
      </root>
    </mxGraphModel>
  </diagram>
</mxfile>
